<?xml version="1.0" encoding="utf-8"?>
<!-- Generator: Adobe Illustrator 20.1.0, SVG Export Plug-In . SVG Version: 6.00 Build 0)  -->
<svg version="1.1" id="Layer_1" xmlns="http://www.w3.org/2000/svg" xmlns:xlink="http://www.w3.org/1999/xlink" x="0px" y="0px"
	 viewBox="0 0 292.2 48.1" style="enable-background:new 0 0 292.2 48.1;" xml:space="preserve">
<style type="text/css">
	.st0{fill:#FFFFFF;}
</style>
<circle class="st0" cx="20.4" cy="27.2" r="3.3"/>
<circle class="st0" cx="60.3" cy="27.2" r="3.3"/>
<g>
	<path class="st0" d="M13.5,20.3c-1.8,1.8-2.9,4.3-2.9,6.9c0,2.6,1,5.1,2.9,6.9c1.8,1.8,4.3,2.9,6.9,2.9c5.4,0,9.8-4.4,9.8-9.8
		c0-5.4-4.4-9.8-9.8-9.8C17.8,17.4,15.3,18.4,13.5,20.3z M15.6,32c-1.3-1.3-2-3-2-4.8c0-1.8,0.7-3.5,2-4.8c1.3-1.3,3-2,4.8-2
		c3.7,0,6.8,3,6.8,6.8c0,3.7-3,6.8-6.8,6.8C18.6,34,16.9,33.3,15.6,32z"/>
</g>
<g>
	<path class="st0" d="M53.4,20.3c-1.8,1.8-2.9,4.3-2.9,6.9c0,2.6,1,5.1,2.9,6.9c1.8,1.8,4.3,2.9,6.9,2.9c5.4,0,9.8-4.4,9.8-9.8
		c0-5.4-4.4-9.8-9.8-9.8C57.7,17.4,55.2,18.4,53.4,20.3z M55.5,32c-1.3-1.3-2-3-2-4.8c0-1.8,0.7-3.5,2-4.8c1.3-1.3,3-2,4.8-2
		c3.7,0,6.8,3,6.8,6.8c0,3.7-3,6.8-6.8,6.8C58.5,34,56.8,33.3,55.5,32z"/>
</g>
<path class="st0" d="M76.1,14.3c0.8-2.3,1.9-5,3.6-6.6H66.3c-0.2-0.1-0.5-0.1-0.7-0.2C64.9,6.4,59.9,0,40,0
	C18.2,0,14.3,7.7,14.3,7.7h-14c1.8,1.8,3,4.8,3.8,7.3C1.5,18.4,0,22.6,0,27.2c0,11.2,9.1,20.4,20.4,20.4c6.2,0,11.8-2.8,15.5-7.2
	l4.6,6.5l4-6.7c3.7,4.6,9.4,7.5,15.8,7.5c11.2,0,20.4-9.1,20.4-20.4C80.7,22.3,78.9,17.9,76.1,14.3z M20.4,43.6
	c-9,0-16.4-7.3-16.4-16.4c0-9,7.3-16.4,16.4-16.4c9,0,16.4,7.3,16.4,16.4C36.7,36.2,29.4,43.6,20.4,43.6z M20.6,8.2
	c0,0,5.2-5.8,19.2-5.8h1.4c14,0,19.2,5.8,19.2,5.8S45.5,5.7,40.5,24C35.6,5.7,20.6,8.2,20.6,8.2z M60.3,43.6
	c-9,0-16.4-7.3-16.4-16.4c0-9,7.3-16.4,16.4-16.4c9,0,16.4,7.3,16.4,16.4C76.7,36.2,69.3,43.6,60.3,43.6z"/>
<path class="st0" d="M95.7,12.2v5.2h5.7v3h-5.7v11.7c0,2.7,0.8,4.2,3,4.2c1.1,0,1.7-0.1,2.3-0.3l0.2,3c-0.8,0.3-2,0.5-3.5,0.5
	c-1.8,0-3.3-0.6-4.3-1.7c-1.1-1.2-1.5-3.2-1.5-5.7V20.4h-3.4v-3h3.4v-4L95.7,12.2z"/>
<path class="st0" d="M105,24.2c0-2.6,0-4.8-0.2-6.8h3.5l0.2,4.3h0.1c1-2.9,3.4-4.8,6.1-4.8c0.4,0,0.7,0,1.1,0.1v3.7
	c-0.5,0-0.9-0.1-1.4-0.1c-2.8,0-4.8,2.1-5.3,5c-0.1,0.6-0.1,1.2-0.1,1.9v11.6h-4L105,24.2z"/>
<path class="st0" d="M120.8,13.4c-1.5,0-2.5-1.2-2.5-2.6s1-2.5,2.6-2.5c1.5,0,2.5,1.1,2.5,2.5S122.4,13.4,120.8,13.4L120.8,13.4z
	 M118.9,39.2V17.4h4v21.8H118.9z"/>
<path class="st0" d="M128.4,24.5c0-2.8,0-5-0.2-7.1h3.6l0.2,3.7h0.1c1.6-2.7,4.2-4.2,7.7-4.2c5.3,0,9.3,4.5,9.3,11.1
	c0,7.8-4.8,11.7-9.9,11.7c-2.9,0-5.4-1.3-6.7-3.4h-0.1v11.8h-4V24.5z M132.4,30.3c0,0.5,0,1.1,0.2,1.6c0.7,2.7,3.1,4.6,5.9,4.6
	c4.2,0,6.6-3.4,6.6-8.4c0-4.4-2.2-8.1-6.4-8.1c-2.7,0-5.3,1.9-6,4.9c-0.1,0.5-0.2,1.1-0.2,1.6V30.3z"/>
<path class="st0" d="M168.5,33.9c0,1.9,0.1,3.7,0.3,5.2h-3.6l-0.4-2.7h-0.1c-1.2,1.7-3.6,3.2-6.7,3.2c-4.4,0-6.7-3.1-6.7-6.3
	c0-5.3,4.7-8.1,13.1-8.1v-0.5c0-1.8-0.5-5.1-4.9-5c-2.1,0-4.2,0.6-5.7,1.6l-0.9-2.7c1.8-1.1,4.5-1.9,7.2-1.9c6.7,0,8.3,4.5,8.3,8.9
	V33.9z M164.6,28c-4.3-0.1-9.2,0.7-9.2,4.9c0,2.6,1.7,3.8,3.7,3.8c2.9,0,4.7-1.8,5.4-3.6c0.1-0.4,0.2-0.9,0.2-1.3V28z"/>
<path class="st0" d="M192.7,7.2v26.3c0,1.9,0,4.1,0.2,5.6h-3.6l-0.2-3.8H189c-1.2,2.4-3.8,4.3-7.4,4.3c-5.3,0-9.4-4.5-9.4-11.1
	c0-7.3,4.5-11.7,9.8-11.7c3.4,0,5.6,1.6,6.6,3.3h0.1v-13H192.7z M188.7,26.2c0-0.5,0-1.2-0.2-1.7c-0.6-2.5-2.7-4.5-5.7-4.5
	c-4.1,0-6.5,3.6-6.5,8.4c0,4.5,2.2,8.1,6.4,8.1c2.7,0,5.1-1.8,5.8-4.7c0.1-0.5,0.2-1.1,0.2-1.7V26.2z"/>
<path class="st0" d="M199.8,17.4l4.3,12.2c0.7,2,1.3,3.8,1.8,5.6h0.1c0.5-1.8,1.1-3.6,1.8-5.6l4.2-12.2h4.1l-8.6,21.8h-3.8
	l-8.3-21.8H199.8z"/>
<path class="st0" d="M220.8,13.4c-1.5,0-2.5-1.2-2.5-2.6s1-2.5,2.6-2.5c1.5,0,2.5,1.1,2.5,2.5S222.5,13.4,220.8,13.4L220.8,13.4z
	 M218.9,39.2V17.4h4v21.8H218.9z"/>
<path class="st0" d="M228,35.2c1.2,0.7,3.3,1.5,5.3,1.5c2.8,0,4.2-1.4,4.2-3.2c0-1.9-1.1-2.9-4-4c-4-1.4-5.8-3.6-5.8-6.2
	c0-3.5,2.9-6.4,7.5-6.4c2.2,0,4.1,0.6,5.3,1.3l-0.9,2.8c-0.9-0.5-2.4-1.3-4.5-1.3c-2.3,0-3.6,1.4-3.6,3c0,1.8,1.3,2.7,4.1,3.7
	c3.7,1.4,5.7,3.3,5.7,6.6c0,3.9-3,6.6-8.1,6.6c-2.4,0-4.6-0.6-6.1-1.5L228,35.2z"/>
<path class="st0" d="M254.3,39.7c-5.9,0-10.4-4.3-10.4-11.2c0-7.3,4.8-11.6,10.8-11.6c6.3,0,10.5,4.5,10.5,11.2
	C265.1,36.1,259.5,39.7,254.3,39.7L254.3,39.7z M254.4,36.7c3.8,0,6.6-3.6,6.6-8.5c0-3.7-1.8-8.3-6.5-8.3c-4.6,0-6.7,4.3-6.7,8.5
	C247.8,33.1,250.5,36.7,254.4,36.7L254.4,36.7z"/>
<path class="st0" d="M269.2,24.2c0-2.6,0-4.8-0.2-6.8h3.5l0.2,4.3h0.1c1-2.9,3.4-4.8,6.1-4.8c0.4,0,0.7,0,1.1,0.1v3.7
	c-0.5,0-0.9-0.1-1.4-0.1c-2.8,0-4.8,2.1-5.3,5c-0.1,0.6-0.1,1.2-0.1,1.9v11.6h-4L269.2,24.2z"/>
<g>
	<g>
		<g>
			<path class="st0" d="M285.9,17.1c0.3-0.1,0.8-0.1,1.4-0.1c0.7,0,1.1,0.1,1.5,0.4c0.3,0.2,0.4,0.5,0.4,1c0,0.6-0.4,1-0.8,1.1v0
				c0.3,0.1,0.5,0.4,0.6,0.9c0.1,0.5,0.3,1.1,0.4,1.3h-1c-0.1-0.1-0.2-0.5-0.3-1.1c-0.1-0.6-0.3-0.7-0.7-0.7h-0.3v1.8h-1V17.1z
				 M286.9,19.1h0.4c0.5,0,0.8-0.3,0.8-0.7c0-0.4-0.3-0.6-0.8-0.6c-0.2,0-0.4,0-0.5,0V19.1z"/>
		</g>
		<g>
			<path class="st0" d="M283,19.5c0,2.6,2.1,4.6,4.6,4.6c2.6,0,4.6-2.1,4.6-4.6c0-2.6-2.1-4.6-4.6-4.6C285,14.9,283,17,283,19.5z
				 M284,19.5c0-2,1.6-3.6,3.6-3.6c2,0,3.6,1.6,3.6,3.6c0,2-1.6,3.6-3.6,3.6C285.6,23.2,284,21.5,284,19.5z"/>
		</g>
	</g>
</g>
</svg>
